<svg width="40" height="40" viewBox="0 0 40 40" fill="none" xmlns="http://www.w3.org/2000/svg">
<path d="M20 22.3334L11.8333 30.5001C11.5278 30.8056 11.1389 30.9584 10.6667 30.9584C10.1944 30.9584 9.80555 30.8056 9.5 30.5001C9.19444 30.1945 9.04166 29.8056 9.04166 29.3334C9.04166 28.8612 9.19444 28.4723 9.5 28.1667L17.6667 20.0001L9.5 11.8334C9.19444 11.5279 9.04166 11.139 9.04166 10.6667C9.04166 10.1945 9.19444 9.80564 9.5 9.50008C9.80555 9.19453 10.1944 9.04175 10.6667 9.04175C11.1389 9.04175 11.5278 9.19453 11.8333 9.50008L20 17.6667L28.1667 9.50008C28.4722 9.19453 28.8611 9.04175 29.3333 9.04175C29.8056 9.04175 30.1944 9.19453 30.5 9.50008C30.8056 9.80564 30.9583 10.1945 30.9583 10.6667C30.9583 11.139 30.8056 11.5279 30.5 11.8334L22.3333 20.0001L30.5 28.1667C30.8056 28.4723 30.9583 28.8612 30.9583 29.3334C30.9583 29.8056 30.8056 30.1945 30.5 30.5001C30.1944 30.8056 29.8056 30.9584 29.3333 30.9584C28.8611 30.9584 28.4722 30.8056 28.1667 30.5001L20 22.3334Z" fill="black"/>
</svg>
